<svg viewBox="102.0 51.6 167.2 47.1">
  <defs>
    <linearGradient id="gradient" x1="0.5" y1="0.0" x2="0.5" y2="1.0">
      <stop offset="0.0" stop-color="#fe3061" />
      <stop offset="1.0" stop-color="#7d1376" />
    </linearGradient>
  </defs>
  <path transform="translate(191.0, 91.0)"
    d="M -61.09532928466797 -39.41357421875 L -59.07677459716797 -39.41357421875 C -49.01850509643555 -39.41357421875 -43.08361053466797 -36.10969924926758 -41.27208709716797 -29.501953125 L -41.03917694091797 -28.13037109375 L -41.03917694091797 -27.45751953125 C -41.03918075561523 -25.47347068786621 -45.55073547363281 -22.16959762573242 -54.57384490966797 -17.5458984375 C -52.31375503540039 -7.970703125 -51.18371200561523 -1.285319089889526 -51.18370819091797 2.51025390625 L -50.95079803466797 2.7431640625 L -50.95079803466797 2.9501953125 L -51.18370819091797 3.64892578125 L -50.95079803466797 5.66748046875 L -51.18370819091797 5.900390625 L -51.62364959716797 5.900390625 C -51.62364959716797 5.296549320220947 -51.77892303466797 4.994628429412842 -52.08946990966797 4.99462890625 C -52.08946990966797 5.443195819854736 -52.23611831665039 5.667479991912842 -52.52941131591797 5.66748046875 L -52.99523162841797 5.66748046875 L -53.20226287841797 5.4345703125 L -53.43517303466797 5.4345703125 C -53.65945816040039 6.038411617279053 -53.88374328613281 6.34033203125 -54.10802459716797 6.34033203125 L -55.24669647216797 6.107421875 L -55.68663787841797 6.5732421875 C -55.79015350341797 5.814127445220947 -56.16971206665039 5.434569835662842 -56.82530975341797 5.4345703125 C -59.22342300415039 -0.1552734375 -61.31961441040039 -6.616373538970947 -63.11388397216797 -13.94873046875 L -73.25841522216797 -10.55859375 C -74.19005584716797 -8.4365234375 -74.94054412841797 -7.237467288970947 -75.50988006591797 -6.96142578125 L -75.74279022216797 -5.82275390625 L -76.41564178466797 -5.82275390625 L -75.50988006591797 -8.30712890625 L -75.50988006591797 -8.5400390625 L -75.74279022216797 -8.5400390625 L -76.88146209716797 -6.0556640625 L -76.41564178466797 -5.58984375 C -76.98497772216797 -5.589843273162842 -78.11502075195312 -4.019856452941895 -79.80577850341797 -0.8798828125 C -80.01280975341797 -0.8626301884651184 -80.46138000488281 0.1207681894302368 -81.15148162841797 2.0703125 C -81.46202850341797 2.0703125 -82.21251678466797 3.5712890625 -83.40294647216797 6.5732421875 L -83.63585662841797 6.5732421875 C -83.63585662841797 5.883138179779053 -84.38634490966797 5.279296875 -85.88732147216797 4.76171875 L -86.32726287841797 5.2275390625 C -86.32726287841797 4.9169921875 -86.56017303466797 4.76171875 -87.02599334716797 4.76171875 L -87.69884490966797 4.99462890625 C -88.02664184570312 4.183756351470947 -88.47521209716797 3.735188484191895 -89.04454803466797 3.64892578125 L -89.04454803466797 2.9501953125 C -89.04454803466797 -0.6901040077209473 -84.91255187988281 -10.75699806213379 -76.64855194091797 -27.25048828125 C -79.80577850341797 -29.38981056213379 -81.38439178466797 -31.11507225036621 -81.38439178466797 -32.42626953125 L -81.38439178466797 -33.5390625 C -81.26362609863281 -34.33268356323242 -78.48595428466797 -35.68701171875 -73.05138397216797 -37.60205078125 C -72.29226684570312 -38.80973434448242 -68.30691528320312 -39.41357421875 -61.09532928466797 -39.41357421875 Z M -68.31554412841797 -21.60888671875 L -67.84972381591797 -21.60888671875 C -58.82661056518555 -25.47346687316895 -53.34891128540039 -28.55305671691895 -51.41661834716797 -30.84765625 L -51.41661834716797 -31.08056640625 L -55.91954803466797 -31.28759765625 L -56.35948944091797 -31.28759765625 C -62.07010269165039 -31.28759765625 -64.92540740966797 -30.61474609375 -64.92540740966797 -29.26904296875 C -66.70242309570312 -24.73160552978516 -67.83247375488281 -22.17822074890137 -68.31554412841797 -21.60888671875 Z M -43.76039505004883 -6.3662109375 L -43.03578567504883 -6.3662109375 C -41.96612548828125 -6.366210460662842 -40.92234039306641 -5.658853530883789 -39.90443801879883 -4.244140625 L -39.90443801879883 -3.9853515625 C -41.80222320556641 -1.328450441360474 -42.88051223754883 0 -43.13930130004883 0 L -43.26869583129883 0 C -43.76902008056641 -0.1725260317325592 -44.01918411254883 -0.3795572519302368 -44.01918411254883 -0.62109375 L -44.14857864379883 -0.49169921875 L -44.27797317504883 -0.49169921875 C -45.31312942504883 -0.49169921875 -46.18438720703125 -0.9488931894302368 -46.89174270629883 -1.86328125 L -46.89174270629883 -2.25146484375 C -46.89174270629883 -3.062337398529053 -46.14125442504883 -4.390787601470947 -44.64027786254883 -6.23681640625 L -43.76039505004883 -6.3662109375 Z M 17.30202484130859 -37.8349609375 C 17.30202484130859 -37.24837112426758 17.5953197479248 -36.95507431030273 18.18190765380859 -36.955078125 L 18.18190765380859 -36.51513671875 L 17.50905609130859 -36.51513671875 L 17.50905609130859 -36.2822265625 C 18.25091743469238 -36.2822265625 18.62184906005859 -36.13557815551758 18.62184906005859 -35.84228515625 L 18.62184906005859 -35.609375 L 17.74196624755859 -35.609375 C 17.74196624755859 -35.16080856323242 18.18190765380859 -34.9365234375 19.06179046630859 -34.9365234375 L 19.06179046630859 -34.49658203125 L 18.38893890380859 -34.49658203125 L 18.38893890380859 -34.28955078125 L 21.05446624755859 -34.28955078125 L 23.07302093505859 -33.1767578125 L 22.84011077880859 -32.94384765625 L 22.84011077880859 -32.73681640625 C 23.58197212219238 -32.73681640625 23.95290374755859 -32.58154296875 23.95290374755859 -32.27099609375 C 23.95290374755859 -31.73616218566895 21.20973968505859 -31.14957427978516 15.72341156005859 -30.51123046875 C 13.86013031005859 -30.51123046875 10.31472015380859 -29.47607421875 5.087181091308594 -27.40576171875 L 2.628684997558594 -22.5146484375 L 2.861595153808594 -22.5146484375 C 3.655213832855225 -22.80794334411621 5.949810028076172 -23.0322265625 9.745384216308594 -23.1875 L 10.18532562255859 -22.5146484375 L 9.512474060058594 -22.28173828125 L 9.512474060058594 -22.07470703125 C 10.70290374755859 -22.07470703125 11.29811859130859 -21.92806053161621 11.29811859130859 -21.634765625 L 10.18532562255859 -21.1689453125 L 10.18532562255859 -20.9619140625 L 10.62526702880859 -20.9619140625 L 10.41823577880859 -20.2890625 C 10.41823577880859 -19.54720115661621 11.0048246383667 -18.95198631286621 12.17800140380859 -18.50341796875 L 12.17800140380859 -18.29638671875 L 11.97097015380859 -18.0634765625 L 11.97097015380859 -17.8564453125 C 12.71283054351807 -17.8564453125 13.08376216888428 -17.701171875 13.08376312255859 -17.390625 L 13.08376312255859 -17.18359375 C 13.08376312255859 -16.73502540588379 8.416934013366699 -15.55322170257568 -0.9167251586914062 -13.63818359375 C -2.07265043258667 -13.63818359375 -3.556374073028564 -11.41259765625 -5.367897033691406 -6.96142578125 L 10.62526702880859 -9.626953125 L 10.62526702880859 -9.18701171875 L 10.85817718505859 -9.18701171875 L 11.97097015380859 -9.419921875 C 12.16074657440186 -8.678059577941895 12.53167724609375 -8.307127952575684 13.08376312255859 -8.30712890625 L 13.08376312255859 -7.63427734375 C 12.72145843505859 -7.63427734375 12.3505277633667 -7.409993648529053 11.97097015380859 -6.96142578125 L 11.50514984130859 -6.96142578125 L 11.50514984130859 -6.75439453125 L 12.85085296630859 -6.75439453125 L 12.85085296630859 -6.28857421875 L 11.73805999755859 -6.28857421875 L 11.97097015380859 -6.08154296875 L 11.97097015380859 -5.8486328125 L 11.73805999755859 -5.6416015625 C 13.9291410446167 -5.6416015625 15.11094379425049 -5.270670413970947 15.28347015380859 -4.52880859375 L 15.07643890380859 -4.2958984375 C 15.8183012008667 -4.1923828125 16.18923187255859 -3.968098878860474 16.18923187255859 -3.623046875 C 14.87803173065186 -2.777668952941895 10.43548583984375 -1.673502445220947 2.861595153808594 -0.310546875 C -6.023496627807617 1.19042956829071 -10.46604156494141 2.527506351470947 -10.46604156494141 3.70068359375 C -10.67307281494141 4.47705078125 -11.33729839324951 5.141275882720947 -12.45871734619141 5.693359375 L -12.69162750244141 5.693359375 L -14.01145172119141 4.58056640625 L -14.47727203369141 4.58056640625 L -15.59006500244141 4.8134765625 C -15.59006500244141 4.433919429779053 -16.32330131530762 4.06298828125 -17.78977203369141 3.70068359375 L -18.46262359619141 3.90771484375 L -18.69553375244141 3.70068359375 L -18.69553375244141 3.4677734375 L -18.46262359619141 2.794921875 L -18.90256500244141 2.794921875 L -19.13547515869141 3.02783203125 L -19.34250640869141 3.02783203125 L -19.57541656494141 2.794921875 L -19.57541656494141 2.587890625 C -18.3504810333252 -1.8115234375 -12.87277984619141 -14.25065040588379 -3.142311096191406 -34.7294921875 C -3.142311096191406 -36.21321487426758 -2.107154846191406 -37.10172271728516 -0.03684234619140625 -37.39501953125 L 8.632591247558594 -37.162109375 L 17.30202484130859 -37.8349609375 Z M 21.64574432373047 -6.3662109375 L 22.37035369873047 -6.3662109375 C 23.44001579284668 -6.366210460662842 24.48379707336426 -5.658853530883789 25.50170135498047 -4.244140625 L 25.50170135498047 -3.9853515625 C 23.60391426086426 -1.328450441360474 22.52562713623047 0 22.26683807373047 0 L 22.13744354248047 0 C 21.63711738586426 -0.1725260317325592 21.38695526123047 -0.3795572519302368 21.38695526123047 -0.62109375 L 21.25756072998047 -0.49169921875 L 21.12816619873047 -0.49169921875 C 20.09300994873047 -0.49169921875 19.22175407409668 -0.9488931894302368 18.51439666748047 -1.86328125 L 18.51439666748047 -2.25146484375 C 18.51439666748047 -3.062337398529053 19.26488494873047 -4.390787601470947 20.76586151123047 -6.23681640625 L 21.64574432373047 -6.3662109375 Z M 65.29164886474609 -37.3173828125 L 66.71498870849609 -37.3173828125 C 69.57891845703125 -37.3173828125 71.80450439453125 -36.04931640625 73.39174652099609 -33.51318359375 L 73.39174652099609 -32.5556640625 C 73.39173889160156 -32.10709762573242 71.88214111328125 -29.40706443786621 68.86293792724609 -24.45556640625 L 58.38198089599609 -2.76904296875 C 57.01902389526367 -0.2674152851104736 56.06150436401367 1.16455078125 55.50942230224609 1.52685546875 L 55.27651214599609 1.26806640625 L 55.04360198974609 1.26806640625 L 54.55190277099609 2.45849609375 L 54.08608245849609 2.45849609375 L 54.55190277099609 0.80224609375 L 51.93813323974609 5.09814453125 L 51.70522308349609 5.09814453125 L 51.47231292724609 4.865234375 L 51.47231292724609 4.6064453125 L 51.70522308349609 4.37353515625 L 51.70522308349609 3.90771484375 L 51.47231292724609 3.90771484375 L 50.51479339599609 6.0556640625 L 50.02309417724609 6.0556640625 L 50.02309417724609 5.796875 L 50.51479339599609 4.6064453125 L 46.68471527099609 7.7119140625 L 45.98598480224609 7.24609375 L 46.21889495849609 6.9873046875 L 46.21889495849609 6.28857421875 L 45.49428558349609 6.75439453125 L 45.02846527099609 6.28857421875 C 45.02846527099609 4.201008796691895 50.74770355224609 -9.385416030883789 62.18618011474609 -34.470703125 C 62.87628555297852 -36.36848831176758 63.91144180297852 -37.31737899780273 65.29164886474609 -37.3173828125 Z M 60.71108245849609 -6.314453125 L 60.71108245849609 -5.92626953125 L 60.91811370849609 -5.92626953125 L 60.91811370849609 -6.314453125 L 60.71108245849609 -6.314453125 Z M 74.26769256591797 -6.3662109375 L 74.99230194091797 -6.3662109375 C 76.06196594238281 -6.366210460662842 77.10574340820312 -5.658853530883789 78.12364959716797 -4.244140625 L 78.12364959716797 -3.9853515625 C 76.22586059570312 -1.328450441360474 75.14757537841797 0 74.88878631591797 0 L 74.75939178466797 0 C 74.25906372070312 -0.1725260317325592 74.00890350341797 -0.3795572519302368 74.00890350341797 -0.62109375 L 73.87950897216797 -0.49169921875 L 73.75011444091797 -0.49169921875 C 72.71495819091797 -0.49169921875 71.84370422363281 -0.9488931894302368 71.13634490966797 -1.86328125 L 71.13634490966797 -2.25146484375 C 71.13634490966797 -3.062337398529053 71.88683319091797 -4.390787601470947 73.38780975341797 -6.23681640625 L 74.26769256591797 -6.3662109375 Z"
    fill="url(#gradient)" stroke="none" stroke-width="1" stroke-miterlimit="4" stroke-linecap="butt" />
</svg>
