<?xml version="1.0" encoding="UTF-8" standalone="no"?>
<svg
   xmlns:dc="http://purl.org/dc/elements/1.1/"
   xmlns:cc="http://creativecommons.org/ns#"
   xmlns:rdf="http://www.w3.org/1999/02/22-rdf-syntax-ns#"
   xmlns:svg="http://www.w3.org/2000/svg"
   xmlns="http://www.w3.org/2000/svg"
   id="svg9538"
   version="1.1"
   viewBox="0 0 317.49999 317.50001"
   height="1200"
   width="1200">
  <defs
     id="defs9532" />
  <metadata
     id="metadata9535">
    <rdf:RDF>
      <cc:Work
         rdf:about="">
        <dc:format>image/svg+xml</dc:format>
        <dc:type
           rdf:resource="http://purl.org/dc/dcmitype/StillImage" />
        <dc:title></dc:title>
      </cc:Work>
    </rdf:RDF>
  </metadata>
  <g
     style="display:inline"
     id="layer2">
    <ellipse
       style="display:inline;fill:#ffffff;fill-opacity:1;fill-rule:nonzero;stroke:none;stroke-width:5.93180513"
       ry="101.72946"
       rx="122.19228"
       cy="188.87653"
       cx="164.28723"
       id="background" />
    <path
       id="outline"
       d="m 140.48134,37.550164 c 5.65931,7.808282 10.77423,15.961809 15.51327,24.383004 -38.50438,1.325843 -75.919669,16.132982 -104.430833,42.440822 -27.002028,35.42598 -23.634175,30.04254 -28.177091,75.0657 l 3.193085,20.58479 c 28.328977,71.11475 46.620737,78.30369 88.027699,97.79766 26.86882,5.04076 56.67984,13.0796 90.72263,3.93774 19.66594,-7.40984 59.4853,-21.83831 71.61631,-35.71669 20.52529,-27.89317 34.7645,-65.59546 23.79234,-101.02122 C 288.13051,125.50308 260.76474,87.155225 222.173,74.684847 233.45997,59.685295 249.41012,50.058798 265.51816,41.626398 237.77015,42.235612 207.4301,44.468901 185.35974,63.22198 173.87829,49.024714 157.05069,42.32372 140.48134,37.550164 Z m 23.982,51.741027 c 14.97931,0.0042 29.98648,2.424737 44.35285,7.591784 0.29821,0.104984 0.59531,0.213008 0.89245,0.320911 0.32208,-0.04221 0.6482,-0.08907 0.98341,-0.146762 -0.14148,0.120214 -0.27619,0.239633 -0.40618,0.358116 25.95538,9.61223 47.75296,30.31783 60.83246,55.45708 4.38655,10.40387 7.92816,21.32251 9.50589,32.52308 1.13742,15.15726 -3.12867,29.88168 -8.07238,43.75598 -8.24991,16.56869 -19.79215,32.12118 -36.43292,40.10558 -25.18951,12.27849 -53.7577,19.25224 -81.98104,16.35455 -23.79054,-5.09463 -47.81225,-12.60385 -68.543622,-26.41545 -7.889783,-5.1913 -13.897962,-12.43483 -18.858796,-20.45921 -0.441667,-0.50805 -0.868003,-1.01985 -1.273826,-1.53583 -0.136724,-0.41041 -0.262663,-0.82328 -0.382921,-1.23765 -2.597481,-4.49305 -4.909685,-9.17643 -7.069854,-13.8436 C 52.292532,205.3748 46.315854,188.2762 46.978527,170.40097 49.479959,140.20667 72.76286,118.54732 97.101566,105.6597 117.79567,95.158326 141.09562,89.28465 164.46334,89.291191 Z"
       style="display:inline;fill:#000000;fill-opacity:1;fill-rule:nonzero;stroke:none;stroke-width:5.93180466" />
    <path
       id="nose"
       style="display:inline;fill:#000000;fill-opacity:1;fill-rule:nonzero;stroke:none;stroke-width:5.93180513"
       d="m 113.33728,184.70764 c 0,0 54.01743,-63.29258 100.62173,4.84317 0,0 -33.54007,1.31229 -40.4651,12.98058 0,0 -9.62479,6.68479 -20.0876,-0.85582 0,0 -12.50478,-20.35496 -40.06903,-16.96793" />
    <path
       id="mouth"
       style="display:inline;fill:#000000;fill-opacity:1;fill-rule:nonzero;stroke:none;stroke-width:3.65097213"
       d="m 210.13191,228.52419 c 0,0 -54.15843,37.7122 -86.82492,-2.9695 0,0 14.31866,27.69306 47.69795,26.23873 33.38034,-1.45217 39.12697,-23.26923 39.12697,-23.26923" />
    <path
       id="lefteye"
       style="display:inline;fill:#000000;fill-opacity:1;fill-rule:nonzero;stroke:none;stroke-width:5.93180513"
       d="m 84.111536,173.01897 c -2.166802,-0.77959 -6.558769,-2.32662 -8.753863,-3.09731 -3.026899,2.92986 -6.083236,5.82545 -9.093795,8.78748 13.995022,13.33178 36.145522,-4.0598 29.206064,-21.80665 -5.057963,4.43949 -5.198623,12.53048 -11.358406,16.11648 M 108.0707,172.02859 C 98.783198,194.92458 79.187216,211.58081 58.008176,222.11865 49.521707,211.16579 43.031013,195.14207 46.977771,170.40012 61.44789,158.20475 78.492622,145.41695 98.42151,147.44826 c 11.18043,1.16475 13.87213,15.82675 9.64919,24.58033" />
    <path
       id="righteye"
       style="display:inline;fill:#000000;fill-opacity:1;fill-rule:nonzero;stroke:none;stroke-width:5.96309328"
       d="m 256.40638,179.05347 c 7.62301,-5.84952 -4.98357,-7.80722 -9.22944,-9.63807 -1.34046,1.55533 -4.04279,4.69752 -5.38325,6.25285 -7.0905,-0.67779 -12.44115,-4.75778 -14.81949,-11.80285 -7.23593,16.47456 20.03717,28.09384 29.43218,15.18807 m 24.96869,6.34833 c 1.14767,15.1516 -3.15755,29.8742 -8.15354,43.74851 -20.9478,-15.08728 -44.72902,-28.23524 -59.23007,-50.67759 -8.16094,-10.92217 -5.38301,-28.35312 6.68576,-34.19387 16.5682,-8.19303 36.51544,-2.00382 51.09762,8.59812 4.43115,10.39821 8.00973,21.31682 9.60023,32.52483" />
  </g>
</svg>
