<?xml version="1.0" encoding="UTF-8" standalone="no"?>
<!-- Created with Inkscape (http://www.inkscape.org/) -->

<svg
   xmlns:dc="http://purl.org/dc/elements/1.1/"
   xmlns:cc="http://creativecommons.org/ns#"
   xmlns:rdf="http://www.w3.org/1999/02/22-rdf-syntax-ns#"
   xmlns:svg="http://www.w3.org/2000/svg"
   xmlns="http://www.w3.org/2000/svg"
   xmlns:sodipodi="http://sodipodi.sourceforge.net/DTD/sodipodi-0.dtd"
   xmlns:inkscape="http://www.inkscape.org/namespaces/inkscape"
   width="1200"
   height="1200"
   viewBox="0 0 317.49999 317.50001"
   version="1.1"
   id="svg9538"
   inkscape:version="0.92.1 r15371"
   sodipodi:docname="slothheadbw.svg">
  <defs
     id="defs9532">
    <inkscape:path-effect
       effect="simplify"
       id="path-effect4763"
       is_visible="true"
       steps="1"
       threshold="0.002"
       smooth_angles="0"
       helper_size="5"
       simplify_individual_paths="false"
       simplify_just_coalesce="false" />
    <inkscape:path-effect
       effect="clone_original"
       id="path-effect4761"
       is_visible="true"
       linkedpath="" />
    <clipPath
       clipPathUnits="userSpaceOnUse"
       id="clipPath3715">
      <path
         d="M 0,180 H 180 V 0 H 0 Z"
         id="path3713"
         inkscape:connector-curvature="0" />
    </clipPath>
    <clipPath
       clipPathUnits="userSpaceOnUse"
       id="clipPath3783">
      <path
         d="M 81.5693,123.302 H 96.4521 V 86.749 H 81.5693 Z"
         id="path3781"
         inkscape:connector-curvature="0" />
    </clipPath>
    <clipPath
       clipPathUnits="userSpaceOnUse"
       id="clipPath3787">
      <path
         d="m 81.569,86.749 h 14.883 v 36.553 H 81.569 Z"
         id="path3785"
         inkscape:connector-curvature="0" />
    </clipPath>
    <clipPath
       clipPathUnits="userSpaceOnUse"
       id="clipPath3855">
      <path
         d="M 39.6182,88.376 H 123.521 V 4.77246 H 39.6182 Z"
         id="path3853"
         inkscape:connector-curvature="0" />
    </clipPath>
    <clipPath
       clipPathUnits="userSpaceOnUse"
       id="clipPath3859">
      <path
         d="m 56.266,52.802 c -0.09,-0.404 -0.137,-0.815 -0.142,-1.229 v 0 -0.147 c 0.075,-6.308 9.758,-13.582 22.774,-16.787 v 0 c 4.135,-1.018 8.141,-1.51 11.774,-1.529 v 0 h 0.44 c 8.424,0.046 14.739,2.674 15.76,7.236 v 0 c 0.091,0.405 0.138,0.816 0.142,1.23 v 0 0.146 c -0.075,6.309 -9.757,13.582 -22.773,16.786 v 0 c -4.218,1.038 -8.302,1.53 -11.991,1.53 v 0 C 63.715,60.037 57.297,57.404 56.266,52.802"
         id="path3857"
         inkscape:connector-curvature="0" />
    </clipPath>
    <mask
       maskUnits="userSpaceOnUse"
       x="0"
       y="0"
       width="1"
       height="1"
       id="mask3883">
      <g
         id="g3907">
        <g
           clip-path="url(#clipPath3863)"
           id="g3905">
          <path
             d="M 39.618,88.376 H 123.52 V 4.772 H 39.618 Z"
             style="fill:#000000;fill-opacity:1;fill-rule:nonzero;stroke:none"
             id="path3885"
             inkscape:connector-curvature="0" />
          <g
             id="g3903">
            <g
               id="g3887" />
            <g
               id="g3901">
              <g
                 clip-path="url(#clipPath3867)"
                 id="g3899">
                <g
                   id="g3897">
                  <g
                     clip-path="url(#clipPath3871)"
                     id="g3895">
                    <g
                       id="g3893">
                      <g
                         id="g3891">
                        <path
                           d="M 123.521,49.051 85.884,4.772 39.618,44.097 77.255,88.376 Z"
                           style="fill:url(#linearGradient3881);stroke:none"
                           id="path3889"
                           inkscape:connector-curvature="0" />
                      </g>
                    </g>
                  </g>
                </g>
              </g>
            </g>
          </g>
        </g>
      </g>
    </mask>
    <clipPath
       clipPathUnits="userSpaceOnUse"
       id="clipPath3863">
      <path
         d="M 39.6182,88.376 H 123.521 V 4.77246 H 39.6182 Z"
         id="path3861"
         inkscape:connector-curvature="0" />
    </clipPath>
    <clipPath
       clipPathUnits="userSpaceOnUse"
       id="clipPath3867">
      <path
         d="M 39.6182,88.376 H 123.521 V 4.77246 H 39.6182 Z"
         id="path3865"
         inkscape:connector-curvature="0" />
    </clipPath>
    <clipPath
       clipPathUnits="userSpaceOnUse"
       id="clipPath3871">
      <path
         d="M 123.521,49.051 85.884,4.772 39.618,44.097 77.255,88.376 Z"
         id="path3869"
         inkscape:connector-curvature="0" />
    </clipPath>
    <linearGradient
       x1="0"
       y1="0"
       x2="1"
       y2="0"
       gradientUnits="userSpaceOnUse"
       gradientTransform="matrix(-20.238813,-23.810371,23.810371,-20.238813,95.25,62.75)"
       spreadMethod="pad"
       id="linearGradient3881">
      <stop
         style="stop-opacity:1;stop-color:#414142"
         offset="0"
         id="stop3873" />
      <stop
         style="stop-opacity:1;stop-color:#414142"
         offset="0.486865"
         id="stop3875" />
      <stop
         style="stop-opacity:1;stop-color:#414142"
         offset="0.70090579"
         id="stop3877" />
      <stop
         style="stop-opacity:1;stop-color:#ffffff"
         offset="1"
         id="stop3879" />
    </linearGradient>
    <clipPath
       clipPathUnits="userSpaceOnUse"
       id="clipPath3911">
      <path
         d="M 39.6182,88.376 H 123.521 V 4.77246 H 39.6182 Z"
         id="path3909"
         inkscape:connector-curvature="0" />
    </clipPath>
    <clipPath
       clipPathUnits="userSpaceOnUse"
       id="clipPath3915">
      <path
         d="M 123.521,49.051 85.884,4.772 39.618,44.097 77.255,88.376 Z"
         id="path3913"
         inkscape:connector-curvature="0" />
    </clipPath>
    <clipPath
       clipPathUnits="userSpaceOnUse"
       id="clipPath3963">
      <path
         d="M 105.048,96.1328 H 118.66 V 86.4473 H 105.048 Z"
         id="path3961"
         inkscape:connector-curvature="0" />
    </clipPath>
    <clipPath
       clipPathUnits="userSpaceOnUse"
       id="clipPath3967">
      <path
         d="m 110.659,94.016 c -2.76,-1.331 -4.667,-3.355 -4.707,-4.852 v 0 -0.096 c 0.005,-0.2 0.045,-0.389 0.123,-0.566 v 0 c 0.661,-1.506 3.783,-1.477 6.975,0.062 v 0 c 3.191,1.54 5.243,4.008 4.583,5.514 v 0 c -0.325,0.741 -1.248,1.111 -2.482,1.111 v 0 c -1.271,0 -2.873,-0.392 -4.492,-1.173"
         id="path3965"
         inkscape:connector-curvature="0" />
    </clipPath>
    <mask
       maskUnits="userSpaceOnUse"
       x="0"
       y="0"
       width="1"
       height="1"
       id="mask3991">
      <g
         id="g4015">
        <g
           clip-path="url(#clipPath3971)"
           id="g4013">
          <path
             d="M 105.048,96.133 H 118.66 V 86.447 H 105.048 Z"
             style="fill:#000000;fill-opacity:1;fill-rule:nonzero;stroke:none"
             id="path3993"
             inkscape:connector-curvature="0" />
          <g
             id="g4011">
            <g
               id="g3995" />
            <g
               id="g4009">
              <g
                 clip-path="url(#clipPath3975)"
                 id="g4007">
                <g
                   id="g4005">
                  <g
                     clip-path="url(#clipPath3979)"
                     id="g4003">
                    <g
                       id="g4001">
                      <g
                         id="g3999">
                        <path
                           d="m 118.66,95.567 -0.389,-9.12 -13.223,0.566 0.39,9.12 z"
                           style="fill:url(#linearGradient3989);stroke:none"
                           id="path3997"
                           inkscape:connector-curvature="0" />
                      </g>
                    </g>
                  </g>
                </g>
              </g>
            </g>
          </g>
        </g>
      </g>
    </mask>
    <clipPath
       clipPathUnits="userSpaceOnUse"
       id="clipPath3971">
      <path
         d="M 105.048,96.1328 H 118.66 V 86.4473 H 105.048 Z"
         id="path3969"
         inkscape:connector-curvature="0" />
    </clipPath>
    <clipPath
       clipPathUnits="userSpaceOnUse"
       id="clipPath3975">
      <path
         d="M 105.048,96.1328 H 118.66 V 86.4473 H 105.048 Z"
         id="path3973"
         inkscape:connector-curvature="0" />
    </clipPath>
    <clipPath
       clipPathUnits="userSpaceOnUse"
       id="clipPath3979">
      <path
         d="m 118.66,95.567 -0.389,-9.12 -13.223,0.566 0.39,9.12 z"
         id="path3977"
         inkscape:connector-curvature="0" />
    </clipPath>
    <linearGradient
       x1="0"
       y1="0"
       x2="1"
       y2="0"
       gradientUnits="userSpaceOnUse"
       gradientTransform="matrix(-0.3407829,-7.9635301,7.9635301,-0.3407829,112.125,96.71875)"
       spreadMethod="pad"
       id="linearGradient3989">
      <stop
         style="stop-opacity:1;stop-color:#414142"
         offset="0"
         id="stop3981" />
      <stop
         style="stop-opacity:1;stop-color:#414142"
         offset="0.486865"
         id="stop3983" />
      <stop
         style="stop-opacity:1;stop-color:#414142"
         offset="0.70090579"
         id="stop3985" />
      <stop
         style="stop-opacity:1;stop-color:#ffffff"
         offset="1"
         id="stop3987" />
    </linearGradient>
    <clipPath
       clipPathUnits="userSpaceOnUse"
       id="clipPath4019">
      <path
         d="M 105.048,96.1328 H 118.66 V 86.4473 H 105.048 Z"
         id="path4017"
         inkscape:connector-curvature="0" />
    </clipPath>
    <clipPath
       clipPathUnits="userSpaceOnUse"
       id="clipPath4023">
      <path
         d="m 118.66,95.567 -0.389,-9.12 -13.223,0.566 0.39,9.12 z"
         id="path4021"
         inkscape:connector-curvature="0" />
    </clipPath>
    <linearGradient
       x1="0"
       y1="0"
       x2="1"
       y2="0"
       gradientUnits="userSpaceOnUse"
       gradientTransform="matrix(-0.340783,-7.9635305,7.9635305,-0.340783,112.09375,96.75)"
       spreadMethod="pad"
       id="linearGradient4033">
      <stop
         style="stop-opacity:1;stop-color:#ffffff"
         offset="0"
         id="stop4025" />
      <stop
         style="stop-opacity:1;stop-color:#ffffff"
         offset="0.486865"
         id="stop4027" />
      <stop
         style="stop-opacity:1;stop-color:#ffffff"
         offset="0.70090579"
         id="stop4029" />
      <stop
         style="stop-opacity:1;stop-color:#ffffff"
         offset="1"
         id="stop4031" />
    </linearGradient>
    <clipPath
       clipPathUnits="userSpaceOnUse"
       id="clipPath4071">
      <path
         d="m 133.796,90.5859 h 12.646 V 74.0283 h -12.646 z"
         id="path4069"
         inkscape:connector-curvature="0" />
    </clipPath>
    <clipPath
       clipPathUnits="userSpaceOnUse"
       id="clipPath4075">
      <path
         d="m 138.364,88.718 c -0.953,-0.286 -1.484,-1.669 -1.507,-3.535 v 0 -0.264 c 0.013,-1.044 0.179,-2.224 0.511,-3.439 v 0 c 0.885,-3.231 2.642,-5.594 4.097,-5.637 v 0 h 0.081 c 0.112,0.003 0.222,0.021 0.329,0.053 v 0 c 0.959,0.289 1.49,1.69 1.507,3.575 v 0 0.18 c -0.009,1.055 -0.175,2.252 -0.513,3.485 v 0 c -0.892,3.259 -2.673,5.637 -4.135,5.636 v 0 c -0.126,0 -0.249,-0.017 -0.37,-0.054"
         id="path4073"
         inkscape:connector-curvature="0" />
    </clipPath>
    <mask
       maskUnits="userSpaceOnUse"
       x="0"
       y="0"
       width="1"
       height="1"
       id="mask4099">
      <g
         id="g4123">
        <g
           clip-path="url(#clipPath4079)"
           id="g4121">
          <path
             d="m 133.796,90.586 h 12.646 V 74.028 h -12.646 z"
             style="fill:#000000;fill-opacity:1;fill-rule:nonzero;stroke:none"
             id="path4101"
             inkscape:connector-curvature="0" />
          <g
             id="g4119">
            <g
               id="g4103" />
            <g
               id="g4117">
              <g
                 clip-path="url(#clipPath4083)"
                 id="g4115">
                <g
                   id="g4113">
                  <g
                     clip-path="url(#clipPath4087)"
                     id="g4111">
                    <g
                       id="g4109">
                      <g
                         id="g4107">
                        <path
                           d="m 136.678,90.586 9.764,-1.924 -2.881,-14.634 -9.765,1.924 z"
                           style="fill:url(#linearGradient4097);stroke:none"
                           id="path4105"
                           inkscape:connector-curvature="0" />
                      </g>
                    </g>
                  </g>
                </g>
              </g>
            </g>
          </g>
        </g>
      </g>
    </mask>
    <clipPath
       clipPathUnits="userSpaceOnUse"
       id="clipPath4079">
      <path
         d="m 133.796,90.5859 h 12.646 V 74.0283 h -12.646 z"
         id="path4077"
         inkscape:connector-curvature="0" />
    </clipPath>
    <clipPath
       clipPathUnits="userSpaceOnUse"
       id="clipPath4083">
      <path
         d="m 133.796,90.5859 h 12.646 V 74.0283 h -12.646 z"
         id="path4081"
         inkscape:connector-curvature="0" />
    </clipPath>
    <clipPath
       clipPathUnits="userSpaceOnUse"
       id="clipPath4087">
      <path
         d="m 136.678,90.586 9.764,-1.924 -2.881,-14.634 -9.765,1.924 z"
         id="path4085"
         inkscape:connector-curvature="0" />
    </clipPath>
    <linearGradient
       x1="0"
       y1="0"
       x2="1"
       y2="0"
       gradientUnits="userSpaceOnUse"
       gradientTransform="matrix(7.5313759,-1.4827826,1.4827826,7.5313759,135.03125,83.34375)"
       spreadMethod="pad"
       id="linearGradient4097">
      <stop
         style="stop-opacity:1;stop-color:#414142"
         offset="0"
         id="stop4089" />
      <stop
         style="stop-opacity:1;stop-color:#414142"
         offset="0.486865"
         id="stop4091" />
      <stop
         style="stop-opacity:1;stop-color:#414142"
         offset="0.70090579"
         id="stop4093" />
      <stop
         style="stop-opacity:1;stop-color:#ffffff"
         offset="1"
         id="stop4095" />
    </linearGradient>
    <clipPath
       clipPathUnits="userSpaceOnUse"
       id="clipPath4127">
      <path
         d="m 133.796,90.5859 h 12.646 V 74.0283 h -12.646 z"
         id="path4125"
         inkscape:connector-curvature="0" />
    </clipPath>
    <clipPath
       clipPathUnits="userSpaceOnUse"
       id="clipPath4131">
      <path
         d="m 136.678,90.586 9.764,-1.924 -2.881,-14.634 -9.765,1.924 z"
         id="path4129"
         inkscape:connector-curvature="0" />
    </clipPath>
    <linearGradient
       x1="0"
       y1="0"
       x2="1"
       y2="0"
       gradientUnits="userSpaceOnUse"
       gradientTransform="matrix(7.5313759,-1.4827826,1.4827826,7.5313759,135.03125,83.34375)"
       spreadMethod="pad"
       id="linearGradient4141">
      <stop
         style="stop-opacity:1;stop-color:#ffffff"
         offset="0"
         id="stop4133" />
      <stop
         style="stop-opacity:1;stop-color:#ffffff"
         offset="0.486865"
         id="stop4135" />
      <stop
         style="stop-opacity:1;stop-color:#ffffff"
         offset="0.70090579"
         id="stop4137" />
      <stop
         style="stop-opacity:1;stop-color:#ffffff"
         offset="1"
         id="stop4139" />
    </linearGradient>
    <clipPath
       clipPathUnits="userSpaceOnUse"
       id="clipPath4179">
      <path
         d="M 42.707,118.077 H 63.7725 V 85.668 H 42.707 Z"
         id="path4177"
         inkscape:connector-curvature="0" />
    </clipPath>
    <clipPath
       clipPathUnits="userSpaceOnUse"
       id="clipPath4183">
      <path
         d="m 55.963,111.116 c -1.337,-0.049 -3.53,-3.641 -5.072,-8.409 v 0 c -1.645,-5.083 -1.926,-9.579 -0.629,-10.04 v 0 c 1.298,-0.461 3.683,3.287 5.327,8.37 v 0 c 0.934,2.889 1.429,5.588 1.443,7.464 v 0 0.168 c -0.011,1.333 -0.277,2.218 -0.815,2.409 v 0 c -0.064,0.023 -0.131,0.035 -0.2,0.038 v 0 z"
         id="path4181"
         inkscape:connector-curvature="0" />
    </clipPath>
    <mask
       maskUnits="userSpaceOnUse"
       x="0"
       y="0"
       width="1"
       height="1"
       id="mask4207">
      <g
         id="g4231">
        <g
           clip-path="url(#clipPath4187)"
           id="g4229">
          <path
             d="M 42.707,118.077 H 63.772 V 85.668 H 42.707 Z"
             style="fill:#000000;fill-opacity:1;fill-rule:nonzero;stroke:none"
             id="path4209"
             inkscape:connector-curvature="0" />
          <g
             id="g4227">
            <g
               id="g4211" />
            <g
               id="g4225">
              <g
                 clip-path="url(#clipPath4191)"
                 id="g4223">
                <g
                   id="g4221">
                  <g
                     clip-path="url(#clipPath4195)"
                     id="g4219">
                    <g
                       id="g4217">
                      <g
                         id="g4215">
                        <path
                           d="M 52.816,85.668 42.707,102.83 53.663,118.077 63.772,100.915 Z"
                           style="fill:url(#linearGradient4205);stroke:none"
                           id="path4213"
                           inkscape:connector-curvature="0" />
                      </g>
                    </g>
                  </g>
                </g>
              </g>
            </g>
          </g>
        </g>
      </g>
    </mask>
    <clipPath
       clipPathUnits="userSpaceOnUse"
       id="clipPath4187">
      <path
         d="M 42.707,118.077 H 63.7725 V 85.668 H 42.707 Z"
         id="path4185"
         inkscape:connector-curvature="0" />
    </clipPath>
    <clipPath
       clipPathUnits="userSpaceOnUse"
       id="clipPath4191">
      <path
         d="M 42.707,118.077 H 63.7725 V 85.668 H 42.707 Z"
         id="path4189"
         inkscape:connector-curvature="0" />
    </clipPath>
    <clipPath
       clipPathUnits="userSpaceOnUse"
       id="clipPath4195">
      <path
         d="M 52.816,85.668 42.707,102.83 53.663,118.077 63.772,100.915 Z"
         id="path4193"
         inkscape:connector-curvature="0" />
    </clipPath>
    <linearGradient
       x1="0"
       y1="0"
       x2="1"
       y2="0"
       gradientUnits="userSpaceOnUse"
       gradientTransform="matrix(-4.148633,7.0430756,-6.3491793,-8.8357792,56.125,97.109375)"
       spreadMethod="pad"
       id="linearGradient4205">
      <stop
         style="stop-opacity:1;stop-color:#414142"
         offset="0"
         id="stop4197" />
      <stop
         style="stop-opacity:1;stop-color:#414142"
         offset="0.486865"
         id="stop4199" />
      <stop
         style="stop-opacity:1;stop-color:#414142"
         offset="0.70090579"
         id="stop4201" />
      <stop
         style="stop-opacity:1;stop-color:#ffffff"
         offset="1"
         id="stop4203" />
    </linearGradient>
    <clipPath
       clipPathUnits="userSpaceOnUse"
       id="clipPath4235">
      <path
         d="M 42.707,118.077 H 63.7725 V 85.668 H 42.707 Z"
         id="path4233"
         inkscape:connector-curvature="0" />
    </clipPath>
    <clipPath
       clipPathUnits="userSpaceOnUse"
       id="clipPath4239">
      <path
         d="M 52.816,85.668 42.707,102.83 53.663,118.077 63.772,100.915 Z"
         id="path4237"
         inkscape:connector-curvature="0" />
    </clipPath>
    <clipPath
       clipPathUnits="userSpaceOnUse"
       id="clipPath4287">
      <path
         d="M 79.0869,128.092 H 102.938 V 91.395 H 79.0869 Z"
         id="path4285"
         inkscape:connector-curvature="0" />
    </clipPath>
    <clipPath
       clipPathUnits="userSpaceOnUse"
       id="clipPath4291">
      <path
         d="M 88.353,110.689 C 86.492,104.933 86.173,99.843 87.642,99.32 v 0 c 0.075,-0.026 0.153,-0.04 0.234,-0.043 v 0 h 0.048 c 1.513,0.043 4.001,4.115 5.75,9.52 v 0 c 1.045,3.233 1.603,6.254 1.632,8.376 v 0 0.339 c -0.021,1.468 -0.323,2.441 -0.922,2.654 v 0 c -0.082,0.029 -0.168,0.044 -0.258,0.044 v 0 c -1.51,-10e-4 -4.015,-4.087 -5.773,-9.521"
         id="path4289"
         inkscape:connector-curvature="0" />
    </clipPath>
    <mask
       maskUnits="userSpaceOnUse"
       x="0"
       y="0"
       width="1"
       height="1"
       id="mask4315">
      <g
         id="g4339">
        <g
           clip-path="url(#clipPath4295)"
           id="g4337">
          <path
             d="m 79.087,128.092 h 23.852 V 91.395 H 79.087 Z"
             style="fill:#000000;fill-opacity:1;fill-rule:nonzero;stroke:none"
             id="path4317"
             inkscape:connector-curvature="0" />
          <g
             id="g4335">
            <g
               id="g4319" />
            <g
               id="g4333">
              <g
                 clip-path="url(#clipPath4299)"
                 id="g4331">
                <g
                   id="g4329">
                  <g
                     clip-path="url(#clipPath4303)"
                     id="g4327">
                    <g
                       id="g4325">
                      <g
                         id="g4323">
                        <path
                           d="m 90.534,91.395 -11.447,19.433 12.405,17.264 11.446,-19.433 z"
                           style="fill:url(#linearGradient4313);stroke:none"
                           id="path4321"
                           inkscape:connector-curvature="0" />
                      </g>
                    </g>
                  </g>
                </g>
              </g>
            </g>
          </g>
        </g>
      </g>
    </mask>
    <clipPath
       clipPathUnits="userSpaceOnUse"
       id="clipPath4295">
      <path
         d="M 79.0869,128.092 H 102.938 V 91.395 H 79.0869 Z"
         id="path4293"
         inkscape:connector-curvature="0" />
    </clipPath>
    <clipPath
       clipPathUnits="userSpaceOnUse"
       id="clipPath4299">
      <path
         d="M 79.0869,128.092 H 102.938 V 91.395 H 79.0869 Z"
         id="path4297"
         inkscape:connector-curvature="0" />
    </clipPath>
    <clipPath
       clipPathUnits="userSpaceOnUse"
       id="clipPath4303">
      <path
         d="m 90.534,91.395 -11.447,19.433 12.405,17.264 11.446,-19.433 z"
         id="path4301"
         inkscape:connector-curvature="0" />
    </clipPath>
    <linearGradient
       x1="0"
       y1="0"
       x2="1"
       y2="0"
       gradientUnits="userSpaceOnUse"
       gradientTransform="matrix(-4.6965637,7.97329,-7.187746,-10.002764,94.1875,104.35937)"
       spreadMethod="pad"
       id="linearGradient4313">
      <stop
         style="stop-opacity:1;stop-color:#414142"
         offset="0"
         id="stop4305" />
      <stop
         style="stop-opacity:1;stop-color:#414142"
         offset="0.486865"
         id="stop4307" />
      <stop
         style="stop-opacity:1;stop-color:#414142"
         offset="0.70090579"
         id="stop4309" />
      <stop
         style="stop-opacity:1;stop-color:#ffffff"
         offset="1"
         id="stop4311" />
    </linearGradient>
    <clipPath
       clipPathUnits="userSpaceOnUse"
       id="clipPath4343">
      <path
         d="M 79.0869,128.092 H 102.938 V 91.395 H 79.0869 Z"
         id="path4341"
         inkscape:connector-curvature="0" />
    </clipPath>
    <clipPath
       clipPathUnits="userSpaceOnUse"
       id="clipPath4347">
      <path
         d="m 90.534,91.395 -11.447,19.433 12.405,17.264 11.446,-19.433 z"
         id="path4345"
         inkscape:connector-curvature="0" />
    </clipPath>
    <clipPath
       clipPathUnits="userSpaceOnUse"
       id="clipPath4395">
      <path
         d="m 108.96,141.272 h 40.076 V 120.756 H 108.96 Z"
         id="path4393"
         inkscape:connector-curvature="0" />
    </clipPath>
    <clipPath
       clipPathUnits="userSpaceOnUse"
       id="clipPath4399">
      <path
         d="m 127.855,133.623 c -6.976,-0.572 -12.513,-2.622 -12.367,-4.579 v 0 c 0.118,-1.593 3.961,-2.633 9.147,-2.658 v 0 h 0.377 c 1.077,0.005 2.207,0.053 3.371,0.149 v 0 c 6.976,0.571 12.514,2.621 12.368,4.579 v 0 c -0.056,0.734 1.904,3.741 0.5,4.195 v 0 c -0.355,0.114 -0.81,0.164 -1.342,0.164 v 0 c -2.976,0 -8.356,-1.547 -12.054,-1.85"
         id="path4397"
         inkscape:connector-curvature="0" />
    </clipPath>
    <mask
       maskUnits="userSpaceOnUse"
       x="0"
       y="0"
       width="1"
       height="1"
       id="mask4423">
      <g
         id="g4447">
        <g
           clip-path="url(#clipPath4403)"
           id="g4445">
          <path
             d="m 108.96,141.272 h 40.076 V 120.756 H 108.96 Z"
             style="fill:#000000;fill-opacity:1;fill-rule:nonzero;stroke:none"
             id="path4425"
             inkscape:connector-curvature="0" />
          <g
             id="g4443">
            <g
               id="g4427" />
            <g
               id="g4441">
              <g
                 clip-path="url(#clipPath4407)"
                 id="g4439">
                <g
                   id="g4437">
                  <g
                     clip-path="url(#clipPath4411)"
                     id="g4435">
                    <g
                       id="g4433">
                      <g
                         id="g4431">
                        <path
                           d="m 108.96,127.378 10.206,13.894 29.87,-6.621 -10.205,-13.895 z"
                           style="fill:url(#linearGradient4421);stroke:none"
                           id="path4429"
                           inkscape:connector-curvature="0" />
                      </g>
                    </g>
                  </g>
                </g>
              </g>
            </g>
          </g>
        </g>
      </g>
    </mask>
    <clipPath
       clipPathUnits="userSpaceOnUse"
       id="clipPath4403">
      <path
         d="m 108.96,141.272 h 40.076 V 120.756 H 108.96 Z"
         id="path4401"
         inkscape:connector-curvature="0" />
    </clipPath>
    <clipPath
       clipPathUnits="userSpaceOnUse"
       id="clipPath4407">
      <path
         d="m 108.96,141.272 h 40.076 V 120.756 H 108.96 Z"
         id="path4405"
         inkscape:connector-curvature="0" />
    </clipPath>
    <clipPath
       clipPathUnits="userSpaceOnUse"
       id="clipPath4411">
      <path
         d="m 108.96,127.378 10.206,13.894 29.87,-6.621 -10.205,-13.895 z"
         id="path4409"
         inkscape:connector-curvature="0" />
    </clipPath>
    <linearGradient
       x1="0"
       y1="0"
       x2="1"
       y2="0"
       gradientUnits="userSpaceOnUse"
       gradientTransform="matrix(8.2881422,11.283226,-18.193672,4.033134,123.625,123.625)"
       spreadMethod="pad"
       id="linearGradient4421">
      <stop
         style="stop-opacity:1;stop-color:#414142"
         offset="0"
         id="stop4413" />
      <stop
         style="stop-opacity:1;stop-color:#414142"
         offset="0.486865"
         id="stop4415" />
      <stop
         style="stop-opacity:1;stop-color:#414142"
         offset="0.70090579"
         id="stop4417" />
      <stop
         style="stop-opacity:1;stop-color:#ffffff"
         offset="1"
         id="stop4419" />
    </linearGradient>
    <clipPath
       clipPathUnits="userSpaceOnUse"
       id="clipPath4451">
      <path
         d="m 108.96,141.272 h 40.076 V 120.756 H 108.96 Z"
         id="path4449"
         inkscape:connector-curvature="0" />
    </clipPath>
    <clipPath
       clipPathUnits="userSpaceOnUse"
       id="clipPath4455">
      <path
         d="m 108.96,127.378 10.206,13.894 29.87,-6.621 -10.205,-13.895 z"
         id="path4453"
         inkscape:connector-curvature="0" />
    </clipPath>
    <clipPath
       clipPathUnits="userSpaceOnUse"
       id="clipPath4503">
      <path
         d="M 21.6167,120.362 H 69.0684 V 89.6895 H 21.6167 Z"
         id="path4501"
         inkscape:connector-curvature="0" />
    </clipPath>
    <clipPath
       clipPathUnits="userSpaceOnUse"
       id="clipPath4507">
      <path
         d="m 45.436,108.352 c -4.093,-1.618 -10.999,-2.712 -12.812,-4.439 v 0 c -0.16,-0.153 -0.232,-0.324 -0.237,-0.506 v 0 -0.038 c 0.027,-1.048 2.181,-2.451 2.39,-3.031 v 0 c 0.661,-1.837 6.504,-1.227 13.051,1.362 v 0 c 6.547,2.588 11.319,6.177 10.658,8.014 v 0 c -0.257,0.716 -1.303,1.06 -2.871,1.06 v 0 c -2.453,0 -6.185,-0.842 -10.179,-2.422"
         id="path4505"
         inkscape:connector-curvature="0" />
    </clipPath>
    <mask
       maskUnits="userSpaceOnUse"
       x="0"
       y="0"
       width="1"
       height="1"
       id="mask4531">
      <g
         id="g4555">
        <g
           clip-path="url(#clipPath4511)"
           id="g4553">
          <path
             d="M 21.617,120.362 H 69.069 V 89.69 H 21.617 Z"
             style="fill:#000000;fill-opacity:1;fill-rule:nonzero;stroke:none"
             id="path4533"
             inkscape:connector-curvature="0" />
          <g
             id="g4551">
            <g
               id="g4535" />
            <g
               id="g4549">
              <g
                 clip-path="url(#clipPath4515)"
                 id="g4547">
                <g
                   id="g4545">
                  <g
                     clip-path="url(#clipPath4519)"
                     id="g4543">
                    <g
                       id="g4541">
                      <g
                         id="g4539">
                        <path
                           d="M 69.068,106.149 42.965,120.362 21.617,103.902 47.72,89.689 Z"
                           style="fill:url(#linearGradient4529);stroke:none"
                           id="path4537"
                           inkscape:connector-curvature="0" />
                      </g>
                    </g>
                  </g>
                </g>
              </g>
            </g>
          </g>
        </g>
      </g>
    </mask>
    <clipPath
       clipPathUnits="userSpaceOnUse"
       id="clipPath4511">
      <path
         d="M 21.6167,120.362 H 69.0684 V 89.6895 H 21.6167 Z"
         id="path4509"
         inkscape:connector-curvature="0" />
    </clipPath>
    <clipPath
       clipPathUnits="userSpaceOnUse"
       id="clipPath4515">
      <path
         d="M 21.6167,120.362 H 69.0684 V 89.6895 H 21.6167 Z"
         id="path4513"
         inkscape:connector-curvature="0" />
    </clipPath>
    <clipPath
       clipPathUnits="userSpaceOnUse"
       id="clipPath4519">
      <path
         d="M 69.068,106.149 42.965,120.362 21.617,103.902 47.72,89.689 Z"
         id="path4517"
         inkscape:connector-curvature="0" />
    </clipPath>
    <linearGradient
       x1="0"
       y1="0"
       x2="1"
       y2="0"
       gradientUnits="userSpaceOnUse"
       gradientTransform="matrix(-11.845058,6.4492631,14.217093,10.961633,52.734375,101)"
       spreadMethod="pad"
       id="linearGradient4529">
      <stop
         style="stop-opacity:1;stop-color:#414142"
         offset="0"
         id="stop4521" />
      <stop
         style="stop-opacity:1;stop-color:#414142"
         offset="0.486865"
         id="stop4523" />
      <stop
         style="stop-opacity:1;stop-color:#414142"
         offset="0.70090579"
         id="stop4525" />
      <stop
         style="stop-opacity:1;stop-color:#ffffff"
         offset="1"
         id="stop4527" />
    </linearGradient>
    <clipPath
       clipPathUnits="userSpaceOnUse"
       id="clipPath4559">
      <path
         d="M 21.6167,120.362 H 69.0684 V 89.6895 H 21.6167 Z"
         id="path4557"
         inkscape:connector-curvature="0" />
    </clipPath>
    <clipPath
       clipPathUnits="userSpaceOnUse"
       id="clipPath4563">
      <path
         d="M 69.068,106.149 42.965,120.362 21.617,103.902 47.72,89.689 Z"
         id="path4561"
         inkscape:connector-curvature="0" />
    </clipPath>
    <clipPath
       clipPathUnits="userSpaceOnUse"
       id="clipPath4611">
      <path
         d="M 99.3242,117.654 H 115.572 V 96.5752 H 99.3242 Z"
         id="path4609"
         inkscape:connector-curvature="0" />
    </clipPath>
    <clipPath
       clipPathUnits="userSpaceOnUse"
       id="clipPath4615">
      <path
         d="m 106.164,113.369 c -0.577,-0.005 -1.33,-1.743 -1.655,-2.017 v 0 c -0.937,-0.79 -0.38,-3.664 1.243,-6.42 v 0 c 1.623,-2.756 3.698,-4.35 4.635,-3.56 v 0 c 0.938,0.79 0.38,3.664 -1.243,6.42 v 0 c -1.014,1.722 -1.868,5.028 -2.847,5.545 v 0 c -0.04,0.021 -0.082,0.032 -0.125,0.032 v 0 z"
         id="path4613"
         inkscape:connector-curvature="0" />
    </clipPath>
    <mask
       maskUnits="userSpaceOnUse"
       x="0"
       y="0"
       width="1"
       height="1"
       id="mask4639">
      <g
         id="g4663">
        <g
           clip-path="url(#clipPath4619)"
           id="g4661">
          <path
             d="m 99.324,117.654 h 16.248 V 96.575 H 99.324 Z"
             style="fill:#000000;fill-opacity:1;fill-rule:nonzero;stroke:none"
             id="path4641"
             inkscape:connector-curvature="0" />
          <g
             id="g4659">
            <g
               id="g4643" />
            <g
               id="g4657">
              <g
                 clip-path="url(#clipPath4623)"
                 id="g4655">
                <g
                   id="g4653">
                  <g
                     clip-path="url(#clipPath4627)"
                     id="g4651">
                    <g
                       id="g4649">
                      <g
                         id="g4647">
                        <path
                           d="m 109.667,96.575 5.905,14.279 -10.343,6.8 -5.905,-14.279 z"
                           style="fill:url(#linearGradient4637);stroke:none"
                           id="path4645"
                           inkscape:connector-curvature="0" />
                      </g>
                    </g>
                  </g>
                </g>
              </g>
            </g>
          </g>
        </g>
      </g>
    </mask>
    <clipPath
       clipPathUnits="userSpaceOnUse"
       id="clipPath4619">
      <path
         d="M 99.3242,117.654 H 115.572 V 96.5752 H 99.3242 Z"
         id="path4617"
         inkscape:connector-curvature="0" />
    </clipPath>
    <clipPath
       clipPathUnits="userSpaceOnUse"
       id="clipPath4623">
      <path
         d="M 99.3242,117.654 H 115.572 V 96.5752 H 99.3242 Z"
         id="path4621"
         inkscape:connector-curvature="0" />
    </clipPath>
    <clipPath
       clipPathUnits="userSpaceOnUse"
       id="clipPath4627">
      <path
         d="m 109.667,96.575 5.905,14.279 -10.343,6.8 -5.905,-14.279 z"
         id="path4625"
         inkscape:connector-curvature="0" />
    </clipPath>
    <linearGradient
       x1="0"
       y1="0"
       x2="1"
       y2="0"
       gradientUnits="userSpaceOnUse"
       gradientTransform="matrix(3.2609739,7.8851342,7.0217838,-4.6168051,105.375,102.0625)"
       spreadMethod="pad"
       id="linearGradient4637">
      <stop
         style="stop-opacity:1;stop-color:#414142"
         offset="0"
         id="stop4629" />
      <stop
         style="stop-opacity:1;stop-color:#414142"
         offset="0.486865"
         id="stop4631" />
      <stop
         style="stop-opacity:1;stop-color:#414142"
         offset="0.70090579"
         id="stop4633" />
      <stop
         style="stop-opacity:1;stop-color:#ffffff"
         offset="1"
         id="stop4635" />
    </linearGradient>
    <clipPath
       clipPathUnits="userSpaceOnUse"
       id="clipPath4667">
      <path
         d="M 99.3242,117.654 H 115.572 V 96.5752 H 99.3242 Z"
         id="path4665"
         inkscape:connector-curvature="0" />
    </clipPath>
    <clipPath
       clipPathUnits="userSpaceOnUse"
       id="clipPath4671">
      <path
         d="m 109.667,96.575 5.905,14.279 -10.343,6.8 -5.905,-14.279 z"
         id="path4669"
         inkscape:connector-curvature="0" />
    </clipPath>
    <clipPath
       clipPathUnits="userSpaceOnUse"
       id="clipPath4739">
      <path
         d="m 113.517,98.0781 h 24.857 V 73.2354 h -24.857 z"
         id="path4737"
         inkscape:connector-curvature="0" />
    </clipPath>
    <clipPath
       clipPathUnits="userSpaceOnUse"
       id="clipPath4743">
      <path
         d="m 119.915,89.003 c -1.397,-0.718 1.588,-3.642 4.718,-4.826 v 0 c 3.131,-1.184 7.689,-3.537 8.215,-2.057 v 0 c 0.525,1.481 -2.959,6.363 -6.229,7.476 v 0 c -1.091,0.371 -2.024,0.52 -2.848,0.52 v 0 c -1.569,0 -2.742,-0.54 -3.856,-1.113"
         id="path4741"
         inkscape:connector-curvature="0" />
    </clipPath>
    <mask
       maskUnits="userSpaceOnUse"
       x="0"
       y="0"
       width="1"
       height="1"
       id="mask4767">
      <g
         id="g4791">
        <g
           clip-path="url(#clipPath4747)"
           id="g4789">
          <path
             d="m 113.517,98.078 h 24.857 V 73.235 h -24.857 z"
             style="fill:#000000;fill-opacity:1;fill-rule:nonzero;stroke:none"
             id="path4769"
             inkscape:connector-curvature="0" />
          <g
             id="g4787">
            <g
               id="g4771" />
            <g
               id="g4785">
              <g
                 clip-path="url(#clipPath4751)"
                 id="g4783">
                <g
                   id="g4781">
                  <g
                     clip-path="url(#clipPath4755)"
                     id="g4779">
                    <g
                       id="g4777">
                      <g
                         id="g4775">
                        <path
                           d="M 113.517,86.054 126.533,98.078 138.374,85.26 125.358,73.235 Z"
                           style="fill:url(#linearGradient4765);stroke:none"
                           id="path4773"
                           inkscape:connector-curvature="0" />
                      </g>
                    </g>
                  </g>
                </g>
              </g>
            </g>
          </g>
        </g>
      </g>
    </mask>
    <clipPath
       clipPathUnits="userSpaceOnUse"
       id="clipPath4747">
      <path
         d="m 113.517,98.0781 h 24.857 V 73.2354 h -24.857 z"
         id="path4745"
         inkscape:connector-curvature="0" />
    </clipPath>
    <clipPath
       clipPathUnits="userSpaceOnUse"
       id="clipPath4751">
      <path
         d="m 113.517,98.0781 h 24.857 V 73.2354 h -24.857 z"
         id="path4749"
         inkscape:connector-curvature="0" />
    </clipPath>
    <clipPath
       clipPathUnits="userSpaceOnUse"
       id="clipPath4755">
      <path
         d="M 113.517,86.054 126.533,98.078 138.374,85.26 125.358,73.235 Z"
         id="path4753"
         inkscape:connector-curvature="0" />
    </clipPath>
    <linearGradient
       x1="0"
       y1="0"
       x2="1"
       y2="0"
       gradientUnits="userSpaceOnUse"
       gradientTransform="matrix(5.2749696,4.8731399,-4.8731399,5.2749696,122.74219,82.625)"
       spreadMethod="pad"
       id="linearGradient4765">
      <stop
         style="stop-opacity:1;stop-color:#414142"
         offset="0"
         id="stop4757" />
      <stop
         style="stop-opacity:1;stop-color:#414142"
         offset="0.486865"
         id="stop4759" />
      <stop
         style="stop-opacity:1;stop-color:#414142"
         offset="0.70090579"
         id="stop4761" />
      <stop
         style="stop-opacity:1;stop-color:#ffffff"
         offset="1"
         id="stop4763" />
    </linearGradient>
    <clipPath
       clipPathUnits="userSpaceOnUse"
       id="clipPath4795">
      <path
         d="m 113.517,98.0781 h 24.857 V 73.2354 h -24.857 z"
         id="path4793"
         inkscape:connector-curvature="0" />
    </clipPath>
    <clipPath
       clipPathUnits="userSpaceOnUse"
       id="clipPath4799">
      <path
         d="M 113.517,86.054 126.533,98.078 138.374,85.26 125.358,73.235 Z"
         id="path4797"
         inkscape:connector-curvature="0" />
    </clipPath>
    <linearGradient
       x1="0"
       y1="0"
       x2="1"
       y2="0"
       gradientUnits="userSpaceOnUse"
       gradientTransform="matrix(5.2749696,4.8731399,-4.8731399,5.2749696,122.74219,82.625)"
       spreadMethod="pad"
       id="linearGradient4809">
      <stop
         style="stop-opacity:1;stop-color:#ffffff"
         offset="0"
         id="stop4801" />
      <stop
         style="stop-opacity:1;stop-color:#ffffff"
         offset="0.486865"
         id="stop4803" />
      <stop
         style="stop-opacity:1;stop-color:#ffffff"
         offset="0.70090579"
         id="stop4805" />
      <stop
         style="stop-opacity:1;stop-color:#ffffff"
         offset="1"
         id="stop4807" />
    </linearGradient>
  </defs>
  <sodipodi:namedview
     id="base"
     pagecolor="#ffffff"
     bordercolor="#666666"
     borderopacity="1.0"
     inkscape:pageopacity="0.0"
     inkscape:pageshadow="2"
     inkscape:zoom="0.45254834"
     inkscape:cx="820.06157"
     inkscape:cy="351.58988"
     inkscape:document-units="px"
     inkscape:current-layer="layer2"
     showgrid="false"
     units="px"
     inkscape:window-width="743"
     inkscape:window-height="447"
     inkscape:window-x="2064"
     inkscape:window-y="1248"
     inkscape:window-maximized="0"
     showguides="true"
     inkscape:guide-bbox="true"
     inkscape:object-nodes="false"
     inkscape:snap-nodes="false" />
  <metadata
     id="metadata9535">
    <rdf:RDF>
      <cc:Work
         rdf:about="">
        <dc:format>image/svg+xml</dc:format>
        <dc:type
           rdf:resource="http://purl.org/dc/dcmitype/StillImage" />
        <dc:title />
      </cc:Work>
    </rdf:RDF>
  </metadata>
  <g
     inkscape:groupmode="layer"
     id="layer3"
     inkscape:label="Base"
     style="display:inline" />
  <g
     inkscape:groupmode="layer"
     id="layer4"
     inkscape:label="Mouth"
     style="display:inline" />
  <g
     inkscape:groupmode="layer"
     id="layer2"
     inkscape:label="Eyes"
     style="display:inline">
    <g
       id="g4058">
      <path
         transform="scale(0.26458333)"
         id="path3755"
         d="M 530.95312 141.92188 C 552.34262 171.4335 571.67461 202.24998 589.58594 234.07812 C 444.05756 239.08918 302.64545 295.05317 194.88672 394.48438 C 92.831807 528.37783 105.5607 508.031 88.390625 678.19727 L 100.45898 755.99805 C 207.52913 1024.7782 276.66334 1051.949 433.16211 1125.627 C 534.71354 1144.6787 647.3851 1175.0617 776.05078 1140.5098 C 850.37873 1112.5041 1000.8771 1057.9713 1046.7266 1005.5176 C 1124.3025 900.09457 1178.12 757.59772 1136.6504 623.70508 C 1088.9972 474.34235 985.56754 329.40558 839.70898 282.27344 C 882.36842 225.58222 942.65242 189.19861 1003.5332 157.32812 C 898.65886 159.63066 783.98778 168.07144 700.57227 238.94922 C 657.1778 185.29026 593.57743 159.96367 530.95312 141.92188 z M 621.59375 337.47852 C 678.20846 337.49436 734.92848 346.64288 789.22656 366.17188 C 790.35365 366.56867 791.47656 366.97695 792.59961 367.38477 C 793.81692 367.22523 795.04948 367.04812 796.31641 366.83008 C 795.7817 367.28443 795.27256 367.73578 794.78125 368.18359 C 892.88032 404.51328 975.26488 482.77066 1024.6992 577.78516 C 1041.2783 617.10686 1054.6639 658.37417 1060.627 700.70703 C 1064.9259 757.9943 1048.8021 813.64566 1030.1172 866.08398 C 998.93644 928.70577 955.31221 987.48686 892.41797 1017.6641 C 797.21351 1064.071 689.23926 1090.4285 582.56836 1079.4766 C 492.65137 1060.2213 401.86066 1031.84 323.50586 979.63867 C 293.68621 960.018 270.97813 932.64089 252.22852 902.3125 C 250.55923 900.39234 248.94788 898.45798 247.41406 896.50781 C 246.89731 894.95664 246.42132 893.39619 245.9668 891.83008 C 236.14955 874.84845 227.41051 857.1475 219.24609 839.50781 C 197.64107 776.21973 175.05205 711.59511 177.55664 644.03516 C 187.01087 529.91499 275.00924 448.05287 366.99805 399.34375 C 445.21198 359.65352 533.2748 337.4538 621.59375 337.47852 z "
         style="display:inline;fill:#000000;fill-opacity:1;fill-rule:nonzero;stroke:none;stroke-width:22.41942024" />
      <path
         transform="matrix(5.658335,-1.7803247,-1.7803247,-5.658335,113.33728,184.70764)"
         inkscape:connector-curvature="0"
         id="path4731"
         style="display:inline;fill:#000000;fill-opacity:1;fill-rule:nonzero;stroke:none"
         d="m 0,0 c 0,0 11.889,7.445 15.936,-5.87 0,0 -5.46,1.486 -7.164,-0.04 0,0 -1.886,-0.588 -3.187,1.154 0,0 -0.981,3.906 -5.585,4.756" />
      <path
         inkscape:export-ydpi="1200.0394"
         inkscape:export-xdpi="1200.0394"
         inkscape:export-filename="/home/aimeri/Sloth.png"
         sodipodi:nodetypes="cccc"
         inkscape:connector-curvature="0"
         id="path4719"
         style="display:inline;fill:#000000;fill-opacity:1;fill-rule:nonzero;stroke:none;stroke-width:3.65097213"
         d="m 210.13191,208.02418 c 0,0 -54.15843,37.7122 -86.82492,-2.9695 0,0 14.31866,27.69306 47.69795,26.23873 33.38034,-1.45217 39.12697,-23.26923 39.12697,-23.26923"
         transform="translate(0,20.500008)" />
      <path
         transform="matrix(5.658335,-1.7803247,-1.7803247,-5.658335,84.111536,173.01897)"
         sodipodi:nodetypes="cccccccccc"
         inkscape:connector-curvature="0"
         id="path3819"
         style="display:inline;fill:#090a0a;fill-opacity:1;fill-rule:nonzero;stroke:none"
         d="M 0,0 C -0.309,0.235 -0.937,0.706 -1.251,0.941 -1.886,0.623 -2.524,0.312 -3.158,-0.012 -1.582,-2.864 2.86,-1.188 2.642,2.017 1.604,1.559 1.172,0.265 0,0 M 3.903,-1.053 C 1.251,-4.265 -2.743,-5.952 -6.682,-6.575 -7.4925322,-4.3842725 -7.7255519,-1.4790771 -5.839,2.3 -2.895,3.529 0.493,4.723 3.595,3.388 5.334,2.635 5.025,0.141 3.903,-1.053" />
      <path
         transform="matrix(5.658335,-1.7803247,-1.7803247,-5.658335,255.91372,179.05347)"
         inkscape:connector-curvature="0"
         id="path3827"
         style="display:inline;fill:#090a0a;fill-opacity:1;fill-rule:nonzero;stroke:none;stroke-width:1.00527465"
         d="M 0.07922515,-0.02492721 C 1.6010555,0.53003587 -0.32716275,1.4827119 -0.91730903,1.9919604 -1.2115652,1.8096703 -1.8051135,1.4411014 -2.0993696,1.2588112 -3.2053038,1.7265662 -3.8593095,2.6533997 -3.8853125,3.9066592 -5.8824914,1.6234911 -2.0845877,-1.6249519 0.07922515,-0.02492721 M 3.7732503,-2.3091499 C 3.1911819,-4.8037577 1.7539357,-6.9534777 0.24852693,-8.931832 -2.3567306,-5.4457387 -5.515757,-2.1281449 -6.7121639,2.2145345 -7.4718997,4.3838563 -6.1432241,7.0463852 -3.906911,7.3749939 -0.8280249,7.8542199 2.0665485,5.8496564 3.875092,3.4069341 4.0615501,1.5105875 4.0845733,-0.4263076 3.7732503,-2.3091499" />
    </g>
  </g>
</svg>
